<svg height="137" viewBox="0 0 621 137" width="621" xmlns="http://www.w3.org/2000/svg"><g transform="translate(-85.330805 -364.51968)"><path d="m180.89122 414.1106h-.0577.11563z" fill="#13284b"/><path d="m573.64052 447.51388c-3.63925-6.30013-11.69405-8.45913-17.9978-4.81986l-13.64363 7.87785 7.5457 13.06958c-1.48387.16978-2.9966.25995-4.55267.25995-6.5276 0-12.45946-1.56689-17.7884-4.68266-5.32894-3.11938-9.53504-7.41934-12.60026-12.86019-3.06523-5.44447-4.59963-11.51352-4.59963-18.218 0-6.71172 1.5344-12.7952 4.59963-18.27216 3.06522-5.46251 7.27129-9.77331 12.60026-12.88908 5.32892-3.12661 11.2608-4.68989 17.7884-4.68989 6.58896 0 12.55329 1.56328 17.88943 4.68989 5.32171 3.11577 9.50255 7.42657 12.54971 12.88908 3.03273 5.47696 4.5527 11.56044 4.5527 18.27216 0 6.70448-1.51997 12.77353-4.5527 18.218-.40075.70763-.87009 1.34307-1.29254 2.00737zm27.18981 13.12374c5.58886-9.69026 8.38331-20.52142 8.38331-32.49707 0-11.98286-2.79445-22.81402-8.38331-32.49347-5.59246-9.68666-13.27177-17.29376-23.04147-22.82848-9.7697-5.53109-20.73085-8.29667-32.87978-8.29667-12.09481 0-23.02707 2.76558-32.79317 8.29667-9.77687 5.53472-17.44535 13.14182-22.99812 22.82848-5.56722 9.67945-8.34361 20.51061-8.34361 32.49347 0 11.97565 2.77639 22.80681 8.34361 32.49707 5.55277 9.68305 13.22125 17.2757 22.99812 22.77792 9.7661 5.495 20.69836 8.25334 32.79317 8.25334 6.81281 0 13.24648-.89898 19.31194-2.62836l3.40099 5.88494c3.63565 6.31094 11.68682 8.46274 17.99056 4.81986l13.65087-7.87787-9.80222-16.9616c4.43358-4.11944 8.2389-8.85625 11.36911-14.26823" fill="#4395ba"/><g fill="#13284b"><path d="m432.88818 366.26938v74.55085c0 4.24581-.96398 8.00783-2.8847 11.2969-1.91352 3.29627-4.59965 5.83797-8.02948 7.63956-3.43709 1.81241-7.41933 2.70417-11.93593 2.70417-4.46965 0-8.4122-.89176-11.8168-2.70417-3.40822-1.80159-6.0546-4.34329-7.93923-7.63956-1.89908-3.28907-2.84139-7.05109-2.84139-11.2969v-74.55085h-16.0373c-7.27135 0-13.16349 5.89575-13.16349 13.15622v61.39463c0 9.96104 2.15538 18.79926 6.48425 26.50382 4.32164 7.70095 10.40517 13.69058 18.25049 17.94722 7.84537 4.27111 16.86772 6.40844 27.06347 6.40844 10.24989 0 19.30831-2.13733 27.17898-6.40844 7.87784-4.25664 13.98663-10.24627 18.34439-17.94722 4.35048-7.70456 6.52755-16.54278 6.52755-26.50382v-65.82817-8.72268z"/><path d="m305.92718 445.93432c-2.94971 5.35422-6.97527 9.57835-12.07314 12.67606-5.09425 3.08328-10.67592 4.63574-16.74857 4.63574h-22.59019v-70.18588h22.59019c6.07265 0 11.65432 1.56689 16.74857 4.6935 5.09787 3.11937 9.12343 7.34712 12.07314 12.70854 2.94607 5.3506 4.41911 11.26441 4.41911 17.73784s-1.47304 12.37641-4.41911 17.7342m25.33767-48.99652c-5.53112-9.45923-13.0732-16.9255-22.64072-22.42773-9.55308-5.49499-20.07013-8.23891-31.51866-8.23891h-51.79459v110.61501c0 7.25688 5.89214 13.14902 13.16706 13.14902h38.62753c11.44853 0 21.96558-2.74391 31.51866-8.23531 9.56752-5.50222 17.1096-12.97572 22.64072-22.42769 5.52028-9.452 8.28223-19.83185 8.28223-31.17207 0-11.39438-2.76195-21.82118-8.28223-31.26232"/><path d="m636.8273 486.13164c-7.49875-3.69342-14.36932-8.60356-20.60805-14.72316l6.17734-11.17413c1.20589-2.11931 2.78002-3.72232 4.726-4.80544 1.94961-1.09754 4.09419-1.6427 6.44818-1.6427 3.20961 0 6.29649.92785 9.27507 2.75832 7.67565 5.03288 13.89275 7.55291 18.63678 7.55291 4.87406 0 8.69021-.982 11.47382-2.96773 2.78001-1.97488 4.16278-5.0437 4.16278-9.22452 0-2.63557-1.28168-5.03289-3.86311-7.18106-2.57422-2.13734-6.56006-4.19166-11.93956-6.14126-12.88545-4.35413-22.41326-9.6325-28.56535-15.84239-6.15571-6.21345-9.23176-13.61836-9.23176-22.20747 0-7.04385 1.6716-13.29343 5.02201-18.72707 3.35766-5.43724 8.06203-9.66862 14.13832-12.67245 6.0618-3.00746 13.01902-4.51299 20.87163-4.51299 6.52755 0 13.1562 1.20588 19.88237 3.6104 6.72974 2.40452 12.21394 5.86686 16.45611 10.39791l-5.67551 9.87079c-1.59939 2.75471-3.51651 4.77294-5.75133 6.05461-2.23843 1.29251-4.61048 1.93518-7.13052 1.93518-2.00377 0-4.06527-.42965-6.18818-1.28891-1.88823-1.03259-3.89202-1.8052-6.01131-2.31427-2.11931-.51989-3.97864-.77984-5.58163-.77984-3.26381 0-5.88496.76541-7.86344 2.28538-1.9749 1.50913-2.95691 3.53095-2.95691 6.06184 0 2.28175 1.33941 4.33246 4.0328 6.13404 2.68971 1.80157 6.87057 3.50569 12.54246 5.10507 12.31505 3.27101 21.56485 8.24614 27.74583 14.95063 6.1882 6.70086 9.27866 15.0914 9.27866 25.17881 0 7.84176-1.88822 14.78093-5.67191 20.82832-3.78005 6.03655-9.09096 10.72284-15.92901 14.03717-6.84885 3.32517-14.70872 4.99317-23.58663 4.99317-8.70467 0-16.80634-1.85213-24.31595-5.54916"/><path d="m132.92292 490.06985v-40.98509c0-1.99654-.27801-3.9967-.81596-5.96797-.54516-1.9785-1.5344-4.14111-2.96411-6.49147l-43.812042-70.35559h26.370252c2.80527 0 5.22784.62821 7.2641 1.88822 2.02903 1.25642 3.8234 3.23132 5.36142 5.92827l18.22521 29.81095c2.62477 4.70072 4.22778 10.54594 4.80183 17.52841h.26347c1.19503-8.08004 2.83053-13.91803 4.89208-17.52841l18.20718-29.89399c1.4983-2.69336 3.28904-4.65017 5.37945-5.88855 2.09042-1.23113 4.59604-1.8449 7.52046-1.8449h26.02726l-43.729 70.35559c-1.4947 2.40812-2.49837 4.58878-3.00744 6.53479-.51269 1.94961-.77624 3.92811-.77624 5.92465v28.59785c0 6.83806-5.54195 12.38724-12.38001 12.38724z"/></g></g></svg>
